<svg xmlns="http://www.w3.org/2000/svg" width="52" height="52" viewBox="0 0 52 52">
    <g fill="none" fill-rule="evenodd">
        <g>
            <g>
                <g>
                    <g>
                        <g>
                            <g>
                                <path d="M0 0H52V52H0z" opacity=".2" transform="translate(-621 -506) translate(136 320) translate(1 56) translate(0 114) translate(438) translate(46 16)"/>
                                <g fill="#333">
                                    <path d="M30.704 0c1.49 0 2.7 1.209 2.7 2.7 0 .128-.01.255-.028.382l-4.085 28.6C29.1 33.012 27.96 34 26.618 34H6.786c-1.344 0-2.483-.988-2.673-2.318L.027 3.082C-.183 1.606.842.238 2.32.027 2.445.01 2.573 0 2.7 0zm0 1.5H2.7c-.056 0-.113.004-.17.012-.655.094-1.111.702-1.018 1.358l4.086 28.6c.085.59.59 1.03 1.188 1.03h19.832c.597 0 1.103-.44 1.188-1.03l4.086-28.6c.008-.057.012-.113.012-.17 0-.663-.538-1.2-1.2-1.2zM12.639 21.813c-2.657 0-4.812-2.155-4.812-4.813v-3.196c0-.893.724-1.617 1.617-1.617h3.195c1.71 0 3.21.89 4.064 2.233.852-1.342 2.353-2.232 4.061-2.232h3.196c.893 0 1.617.723 1.617 1.616V17c0 2.658-2.155 4.813-4.813 4.813H12.64zm11.321-8.125h-3.196c-1.829 0-3.312 1.483-3.312 3.312v3.311l3.312.002c1.767 0 3.21-1.383 3.308-3.125l.005-.188v-3.196c0-.064-.052-.117-.117-.117zm-11.32 0H9.443c-.065 0-.117.052-.117.116V17l.005.188c.098 1.742 1.541 3.125 3.307 3.125l3.313-.002V17c0-1.83-1.483-3.313-3.313-3.313z" transform="translate(-621 -506) translate(136 320) translate(1 56) translate(0 114) translate(438) translate(46 16) translate(9.298 9)"/>
                                </g>
                            </g>
                        </g>
                    </g>
                </g>
            </g>
        </g>
    </g>
</svg>
