<svg xmlns="http://www.w3.org/2000/svg" width="52" height="52" viewBox="0 0 52 52">
    <g fill="none" fill-rule="evenodd">
        <g>
            <g>
                <g>
                    <g>
                        <g>
                            <path d="M0 0H52V52H0z" opacity=".2" transform="translate(-329 -392) translate(136 320) translate(1 56) translate(146) translate(46 16)"/>
                            <g fill="#333">
                                <g>
                                    <path d="M17.35.728c.223-.137.505-.137.73 0 2.662 1.64 4.045 3.541 4.045 5.7 0 2.03-1.223 3.833-3.582 5.404.006.023.011.048.015.073l.006.095v4.544c.746-1.427 1.778-2.527 3.1-3.29 2.584-1.492 5.734-1.382 9.39.275.272.124.435.406.406.703-.393 3.995-1.872 6.778-4.457 8.27-2.358 1.361-5.185 1.389-8.439.125v4.478c1.533.113 2.927.824 3.854 1.94l.017.021c.44-.06.878-.097 1.32-.112l.441-.008c6.11 0 11.213 4.308 11.763 9.914.04.41-.281.765-.693.765H1c-.412 0-.733-.355-.693-.765.55-5.606 5.652-9.914 11.763-9.914.444 0 .884.023 1.32.068l.441.053.193-.22c.807-.878 1.917-1.472 3.146-1.678V22.6c-3.282 1.29-6.132 1.272-8.506-.1-2.585-1.491-4.064-4.274-4.457-8.27-.03-.296.134-.578.405-.702 3.657-1.657 6.806-1.767 9.391-.275 1.363.787 2.418 1.932 3.169 3.424l-.002-4.661c-2.546-1.614-3.866-3.478-3.866-5.588 0-2.16 1.383-4.062 4.045-5.7zm.783 27.754c-1.414 0-2.695.666-3.42 1.73-.154.225-.425.34-.694.293-.638-.11-1.29-.166-1.949-.166-5.124 0-9.416 3.391-10.268 7.892h32.661c-.835-4.416-4.982-7.763-9.978-7.888l-.289-.004c-.659 0-1.31.056-1.948.166-.268.046-.54-.069-.693-.294-.726-1.063-2.008-1.729-3.422-1.729zM29.81 14.51c-2.867-1.16-5.261-1.205-7.224-.174l-.225.124c-2.004 1.157-3.236 3.295-3.681 6.476l-.03.222.209.088c2.867 1.16 5.26 1.205 7.224.173l.225-.123c2.004-1.157 3.236-3.295 3.68-6.476l.028-.224zm-23.951 0l-.207.086.028.224c.445 3.18 1.677 5.319 3.681 6.476l.225.123c1.963 1.032 4.357.987 7.224-.173l.208-.088-.03-.222c-.444-3.18-1.676-5.319-3.68-6.476l-.225-.124c-1.963-1.031-4.357-.986-7.224.174zM17.714 2.148l-.161.107c-1.847 1.253-2.774 2.58-2.851 3.982l-.006.192c0 1.473.926 2.863 2.857 4.174l.16.107.163-.107c1.847-1.254 2.774-2.58 2.85-3.983l.006-.191c0-1.474-.925-2.864-2.856-4.174l-.162-.107z" transform="translate(-329 -392) translate(136 320) translate(1 56) translate(146) translate(46 16) translate(7.821 5.5) translate(0 .143)"/>
                                </g>
                            </g>
                        </g>
                    </g>
                </g>
            </g>
        </g>
    </g>
</svg>
