<svg xmlns="http://www.w3.org/2000/svg" width="52" height="52" viewBox="0 0 52 52">
    <g fill="none" fill-rule="evenodd">
        <g>
            <g>
                <g>
                    <g>
                        <g>
                            <g>
                                <path d="M0 0H52V52H0z" opacity=".2" transform="translate(-475 -506) translate(136 320) translate(1 56) translate(0 114) translate(292) translate(46 16)"/>
                                <g fill="#333">
                                    <path d="M39.464.678c.38.122.597.52.495.906-1.173 4.434-4.573 6.348-9.924 5.683-1.62.147-2.787 1.252-3.159 3.043 3.763.213 6.442 2.193 6.556 6.22l.004.27-.003 14.489-.013 1.084-.02.677-.03.581-.028.341-.034.31-.04.285-.049.263-.027.125-.06.241-.034.117-.074.23-.04.114c-.535 1.457-1.671 2.134-3.548 2.134-.21 0-.425-.03-.643-.088-.444.48-1.02.7-2.137.798l-.392.029-.436.02-.742.019-.558.005-9.64-.013-3.688.009c-.024.005-.047.01-.071.013l-.102.007H5.92c-3.499 0-5.857-2.102-5.857-5.161 0-.415.335-.75.75-.75.414 0 .75.335.75.75 0 2.123 1.552 3.57 4.114 3.656l.243.005h1.724c.352-3.437 3.16-6.032 6.98-6.032l1.23-.006.42-.008.555-.02.325-.021c.103-.008.2-.017.29-.028l.26-.034.227-.044c.675-.151.92-.443 1.006-1.003l.023-.186.013-.205.008-.343v-7.804l-.045-3.605c0-4.958 2.5-7.167 6.416-7.432.39-2.395 1.886-4.056 4-4.469C30.858.809 34.336-.975 39.464.678zM26.186 11.791c-3.56 0-5.613 1.34-5.703 5.485v4.222l-.002.048v7.67l-.011.346-.022.32-.034.298c-.203 1.432-.913 2.024-2.738 2.25l-.38.041-.412.032-.442.023-.476.017-.51.01-.832.005c-2.937 0-5.066 1.87-5.453 4.419l-.014.095 3.632-.01 9.514.013h2.17l.743-.01.622-.018.353-.018.16-.011.288-.028.129-.016.23-.037.197-.044c.211-.057.362-.13.477-.223l.091-.085c.015-.05.032-.093.053-.135.045-.09.105-.166.176-.229l.015-.03.045-.115.04-.126.037-.139.033-.155.028-.174.026-.194.031-.333.024-.39.017-.457.011-.527.006-1.06-.014-1.915-.03-2.82-.006-1.557c0-.414.336-.75.75-.75s.75.336.75.75l.009 1.943.041 3.926v1.216l-.008.616-.015.539-.015.32-.029.43-.025.254-.029.233-.033.212-.039.195-.043.176.121-.001.12-.005.229-.016.211-.026.195-.037c.688-.16 1.064-.58 1.266-1.562l.051-.282.043-.312.019-.167.032-.359.026-.39.02-.426.02-.705.008-.517.006-1.152V16.8c0-3.475-2.275-5.009-5.75-5.009zm-2.972 9.643c.38 0 .694.282.743.648l.007.102v4.063c0 .414-.336.75-.75.75-.38 0-.693-.282-.743-.649l-.007-.101v-4.063c0-.414.336-.75.75-.75zm7.777-15.777l-.066.194.047.005c3.782.298 6.134-.925 7.228-3.704l.095-.254-.074-.02c-3.653-.936-5.988.282-7.23 3.779z" transform="translate(-475 -506) translate(136 320) translate(1 56) translate(0 114) translate(292) translate(46 16) translate(6.5 7.429)"/>
                                </g>
                            </g>
                        </g>
                    </g>
                </g>
            </g>
        </g>
    </g>
</svg>
