<svg xmlns="http://www.w3.org/2000/svg" width="52" height="52" viewBox="0 0 52 52">
    <g fill="none" fill-rule="evenodd">
        <g>
            <g>
                <g>
                    <g>
                        <g>
                            <path d="M0 0H52V52H0z" transform="translate(-1059 -392) translate(136 320) translate(1 56) translate(876) translate(46 16)"/>
                            <g fill="#333">
                                <path d="M36.694.714c.414 0 .75.336.75.75 0 .38-.282.694-.648.743l-.102.007H24.657v10.803h2.593c2.142 0 3.891 1.685 3.995 3.801l.005.2v5.571c0 4.55-3.174 8.358-7.429 9.331v.884c0 1.183-.959 2.142-2.142 2.142H9.607c-1.183 0-2.143-.959-2.143-2.142v-.884C3.21 30.947.036 27.139.036 22.59v-5.572c0-1.969 1.422-3.605 3.295-3.938 1.26-3.608 4.684-6.098 8.598-6.098 1.347 0 2.637.295 3.8.83l-.001-5.598H11c-.414 0-.75-.336-.75-.75 0-.38.282-.693.648-.743L11 .714h25.694zM22.32 32.161H8.964v.643c0 .322.238.59.548.635l.095.007H21.68c.355 0 .642-.287.642-.642v-.643zm4.929-17.643H4.003c-1.31.017-2.378 1.042-2.462 2.335l-.005.165v5.571c0 4.458 3.613 8.072 8.071 8.072H21.68c4.457 0 8.071-3.614 8.071-8.072v-5.571c0-1.38-1.12-2.5-2.5-2.5zM23.157 2.214h-2.214v10.803h2.214V2.214zM11.929 8.482c-3.054 0-5.75 1.815-6.95 4.51l-.012.026 13.923-.001-.129-.278c-1.215-2.478-3.718-4.153-6.564-4.252zm7.514-6.268h-2.215v6.468c.861.616 1.613 1.38 2.216 2.26l-.001-8.728z" transform="translate(-1059 -392) translate(136 320) translate(1 56) translate(876) translate(46 16) translate(7.571 8.982)"/>
                            </g>
                        </g>
                    </g>
                </g>
            </g>
        </g>
    </g>
</svg>
