<svg xmlns="http://www.w3.org/2000/svg" width="52" height="52" viewBox="0 0 52 52">
    <g fill="none" fill-rule="evenodd">
        <g>
            <g>
                <g>
                    <g>
                        <g>
                            <g>
                                <path d="M0 0H52V52H0z" transform="translate(-913 -392) translate(136 320) translate(1 56) translate(730) translate(31 16) translate(15)"/>
                                <path fill="#333" d="M29.114 10.678c-.924 1.717-.846 4.017-.095 4.88 4.612 1.191 9.504 3.65 12.431 6.359l.12.114.251-.306c.678-.813 1.316-1.474 1.917-1.982l.224-.184c1.55-1.234 3.417-2.09 5.59-2.572.646-.142 1.148.56.802 1.125-.08.13-.16.26-.237.388l-.451.756c-.146.246-.286.488-.422.725l-.392.696-.185.337-.347.65-.163.314-.303.606c-.912 1.869-1.38 3.279-1.4 4.206-.016.636.167 1.51.548 2.616l.19.527.218.559.12.292.26.608.288.64.317.673.345.705.183.364.387.752.416.783.218.404c.328.602-.257 1.292-.904 1.067-1.744-.605-3.442-1.607-5.095-3.002-.778-.657-1.59-1.49-2.436-2.5l-.12-.146-.162.148c-2.956 2.636-7.722 5-12.212 6.153-.748.865-.823 3.07.099 4.783.29.539-.153 1.18-.76 1.098-4.504-.602-7.832-2.46-9.926-5.573-.04-.06-.071-.123-.092-.189C12.759 36.24 7.789 32.837 3.444 27.37l-.32-.409c-.2-.256-.213-.612-.032-.881 3.944-5.857 9.035-9.438 15.239-10.721.021-.072.053-.14.097-.205 2.094-3.113 5.422-4.971 9.926-5.574.607-.081 1.05.56.76 1.099zm-1.95 27.16l-.207.04c-.977.168-1.925.27-2.818.291l-.363.005c-1.12 0-2.22-.074-3.298-.223 1.563 1.784 3.721 2.984 6.496 3.599l.277.059-.038-.131c-.351-1.261-.358-2.578-.048-3.64zM23.777 16.32c-7.919 0-14.2 3.265-18.913 9.837l-.219.309.299.37c2.674 3.278 5.572 5.733 8.698 7.37l-.18.035c3.47-.623 6.004-3.11 6.806-5.888.587-2.036-.1-5.405-1.136-6.89-.237-.34-.154-.808.186-1.045.34-.237.807-.153 1.044.186 1.285 1.842 2.066 5.673 1.347 8.165-.79 2.738-2.963 5.208-5.993 6.39 2.413.958 4.956 1.461 7.63 1.51l.43.004c5.469 0 13.513-3.44 17.145-7.173.316-.325.846-.297 1.127.06 1.021 1.298 1.978 2.322 2.865 3.07.886.747 1.779 1.368 2.68 1.863l.02.01-.253-.5c-.189-.381-.367-.75-.534-1.106l-.318-.697c-1.014-2.27-1.532-4.015-1.554-5.262v-.184c.031-1.317.69-3.196 1.978-5.674l.367-.69.397-.72.401-.704-.203.074c-.996.381-1.896.87-2.7 1.464l-.297.228c-.778.618-1.669 1.58-2.663 2.882-.282.37-.828.396-1.145.056-3.525-3.786-11.744-7.35-17.312-7.35zM12.17 23.84c.608 0 1.1.492 1.1 1.1 0 .607-.492 1.1-1.1 1.1-.607 0-1.1-.493-1.1-1.1 0-.608.493-1.1 1.1-1.1zm15.083-12.555l-.28.059c-2.814.623-4.993 1.848-6.563 3.675 1.09-.132 2.212-.198 3.365-.198 1.063 0 2.21.118 3.397.335-.317-1.084-.314-2.443.04-3.73l.041-.141z" transform="translate(-913 -392) translate(136 320) translate(1 56) translate(730) translate(31 16) translate(15)"/>
                            </g>
                        </g>
                    </g>
                </g>
            </g>
        </g>
    </g>
</svg>
