<svg xmlns="http://www.w3.org/2000/svg" width="52" height="52" viewBox="0 0 52 52">
    <g fill="none" fill-rule="evenodd">
        <g>
            <g>
                <g>
                    <g>
                        <g>
                            <g fill="#333">
                                <path d="M30.714.71c3.472 0 6.322 2.515 6.322 5.667l-.002.132-.005.132-.016.196.139.025c2.958.576 5.21 2.837 5.436 5.608l.015.239.004.222c0 1.804-.862 3.465-2.297 4.62l-.21.161-.14.1.059.098c1.818 3.136-.447 7.254-5.59 7.782l-.278.025-.096.006.012 1.993-.003 2.238-.013 1.962-.002.662c0 2.977-3.052 6.014-7.516 6.14l-.286.004-.324-.005c-1.627-.05-3.052-.46-4.237-1.174-1.177.687-2.63 1.128-4.274 1.175l-.286.004-.324-.005c-4.327-.132-7.327-3.062-7.453-5.95l-.004-.19-.015-2.723-.001-2.483.01-1.648-.092-.005c-5.133-.386-7.537-4.258-6.048-7.447l.085-.173.054-.101-.161-.104C1.616 16.841.599 15.231.437 13.437L.42 13.18l-.005-.249c0-2.898 2.21-5.328 5.205-6.016l.252-.054.136-.024-.015-.195-.007-.265c0-3.152 2.85-5.666 6.322-5.666 1.649 0 3.195.57 4.352 1.554l.212.19.078.076.08-.077c1.043-.976 2.45-1.594 3.98-1.72l.308-.018.275-.005c1.787 0 3.408.665 4.562 1.741 1.046-.98 2.457-1.595 3.987-1.718l.285-.018.287-.005zm-2.169 6.27l.044.013c.123.034.244.07.364.11.073.024.145.049.216.075l.1.037.111.044.127.052.092.04c.043.018.086.037.128.057l.157.075.066.032.097.05c.05.026.098.052.147.08.038.02.076.042.115.064l.048.029-.048-.029c.075.044.149.088.222.134l.053.034c.04.026.08.052.12.08.037.023.073.048.109.073l.08.057c.04.028.078.056.115.085l.08.06.104.083.084.069.115.097.069.061.104.096.07.067c.038.036.075.073.111.11l.057.057c.034.036.068.071.1.107.025.027.05.053.073.08l.074.084.083.099.068.084.094.12.037.05.086.119.083.12.047.071.062.098c.026.04.05.082.076.124.014.025.03.05.044.077l.058.104.067.126.046.091.052.109.048.106c.083.188.157.38.22.577l.025.081.01.033.054.195.026.107.026.115.004.02c.049.23.083.464.102.701l.015.239.004.222c0 .262-.018.521-.054.776l-.01.071-.031.185-.03.15-.023.098c-.012.054-.025.107-.04.16l-.023.087-.034.117c-.015.048-.03.097-.047.146l-.037.107-.048.128-.046.116-.052.124-.053.117-.056.118-.038.076c-.032.062-.065.125-.099.186l-.026.048c-.03.053-.062.106-.094.158l-.049.08c-.03.048-.06.096-.093.143l-.045.067-.112.158-.046.06-.091.119-.073.09c-.036.044-.072.087-.11.13l-.063.071-.078.086-.095.1c-.187.193-.388.376-.601.548l-.21.161-.14.1.059.098c1.818 3.136-.447 7.254-5.59 7.782l-.278.025-.096.006.012 1.993v1.522l-.002.432-.001.339-.007 1.08-.007 1.489c0 1.42-.695 2.854-1.906 3.979l.042.02c.659.303 1.399.505 2.215.594l.354.03.323.016.3.005c3.79 0 6.292-2.44 6.292-4.644l.018-3.343v-1.517l-.013-2.215-.004-.497c-.004-.417.332-.757.75-.757 5.171 0 7.09-3.765 5.012-6.156-.315-.363-.212-.925.212-1.152 1.6-.859 2.583-2.368 2.583-4.01 0-2.444-2.176-4.507-5.014-4.697-.47-.031-.794-.482-.675-.938.078-.299.118-.607.118-.92 0-2.278-2.14-4.165-4.822-4.165-1.309 0-2.524.454-3.409 1.22l-.193.177c.315.503.546 1.054.678 1.639l.013.065c.035.16.06.321.08.485l.002.031.004.037c.007.064.012.129.016.194l.002.042.002.025c.004.083.006.166.006.25l-.002.133-.005.132-.016.196.139.025c.171.033.34.073.508.117l.006.002zm-6.952-4.77c-1.656 0-3.161.729-4.043 1.9-.3.398-.898.398-1.198 0-.883-1.171-2.388-1.9-4.044-1.9-2.683 0-4.822 1.888-4.822 4.167 0 .313.04.62.119.915.121.456-.204.91-.675.941-2.838.19-5.015 2.253-5.015 4.698 0 1.724 1.084 3.299 2.815 4.126.432.207.562.76.267 1.139-1.923 2.46.017 6.053 5.098 6.053.382 0 .697.286.744.655l.006.102-.013 1.74-.005 2.292.018 3.54c0 2.075 2.264 4.406 5.716 4.626l.275.013.3.005c1.647 0 3.05-.461 4.111-1.163l.021-.018c1.276-.888 2.069-2.23 2.153-3.282l.008-.182-.001-.001v-.327l.002-.34.016-2.674v-.198l-.003-1.825-.014-2.206c-.004-.417.333-.757.75-.757 5.171 0 7.09-3.765 5.012-6.156-.315-.363-.212-.925.212-1.152 1.6-.859 2.583-2.368 2.583-4.01 0-2.444-2.176-4.507-5.014-4.697-.47-.031-.794-.482-.675-.938.078-.299.118-.607.118-.92l-.007-.213c0-.023-.002-.045-.004-.068l-.015-.15.015.15c-.006-.077-.015-.153-.025-.23l.01.08c-.008-.069-.018-.137-.03-.204l.02.125c-.01-.074-.024-.147-.039-.22l.019.095c-.013-.07-.027-.139-.043-.207l.024.113c-.036-.177-.086-.351-.147-.52l-.026-.07.026.07c-.023-.061-.046-.121-.072-.181l.046.11c-.024-.062-.05-.124-.078-.186l.032.076c-.03-.07-.06-.138-.094-.205l.062.13c-.025-.056-.051-.112-.08-.166l.018.036c-.734-1.48-2.433-2.53-4.434-2.53zM17.15 8.359c.38 0 .694.282.743.648l.007.102v5.087l2.35-2.145c.305-.28.78-.258 1.059.048.254.278.26.695.028.979l-.076.08-3.361 3.069v3.22l4.254-3.285c.327-.253.798-.193 1.052.135.23.298.201.714-.052.978l-.083.074-5.171 3.995v9.055c0 .414-.336.75-.75.75-.38 0-.693-.282-.743-.648l-.007-.102v-9.054l-5.17-3.996c-.328-.253-.389-.724-.136-1.052.23-.298.64-.375.96-.196l.092.061 4.254 3.287v-3.222l-3.36-3.069c-.307-.279-.328-.753-.049-1.06.254-.277.67-.32.972-.116l.088.069 2.349 2.145V9.108c0-.415.336-.75.75-.75z" transform="translate(-1205 -392) translate(136 320) translate(1 56) translate(1022) translate(46 16) translate(4.571 6.429)"/>
                            </g>
                        </g>
                    </g>
                </g>
            </g>
        </g>
    </g>
</svg>
