<svg xmlns="http://www.w3.org/2000/svg" width="52" height="52" viewBox="0 0 52 52">
    <g fill="none" fill-rule="evenodd">
        <g>
            <g>
                <g>
                    <g>
                        <g>
                            <g>
                                <path d="M0 0H52V52H0z" opacity=".2" transform="translate(-913 -506) translate(136 320) translate(1 56) translate(0 114) translate(730) translate(46 16)"/>
                                <g>
                                    <g>
                                        <g fill="#333">
                                            <path d="M32.193.83l.04.003-.105.01c.883-.123 1.925.535 3.332 1.914l.186.187c1.505 1.571 1.958 3.304 1.318 5.087l-.03.082.043.022c.513.27 1.018.665 1.516 1.182l.14.152c1.174 1.347 1.476 3.459.534 5.11l-.097.16.124.087c1.634 1.196 2.501 3.048 2.598 5.49l1.795.003c.414 0 .75.335.75.75 0 .414-.336.75-.75.75l-1.909-.001-4.837 9.49-.09.16c-.471.785-1.322 1.27-2.246 1.27H10.48l-.183-.006c-.907-.063-1.723-.594-2.145-1.41l-4.925-9.504h-1.82c-.38 0-.694-.282-.744-.648l-.007-.101c0-.415.336-.75.75-.75h1.234c-.741-3.016-.245-6.555 1.46-10.61.12-.284.401-.466.71-.459 3.904.093 7.395 1.978 9.59 4.825l.103-.14c1.75-2.284 4.504-3.756 7.603-3.756l.394.008c.891.036 1.763.194 2.595.468.206-.496.5-.954.87-1.338l.215-.214c.428-.414.862-.737 1.302-.968l.044-.022-.031-.082C26.83 6.177 27.347 4.377 29 2.757l.22-.212C30.443 1.379 31.385.794 32.192.83zm-8.901 20.99l-18.376-.002 4.569 8.815.07.119c.208.302.553.487.926.487h24.024l.139-.01c.366-.045.69-.269.86-.603l4.484-8.797H23.412c-.04 0-.08-.003-.12-.01zm-1.185-10.141l-.247.003c-4.343.13-7.824 3.693-7.824 8.068 0 .195.007.388.02.579l-.002-.04.001.029h8.613l.009-.18c.132-2.357.998-4.147 2.59-5.312l.097-.07-.114-.194c-.337-.612-.505-1.286-.512-1.979-.005-.154-.002-.308.01-.461l-.128-.045-.347-.104c-.697-.194-1.424-.294-2.166-.294zM32.38 2.328h-.252c-.094-.012-.267.052-.506.198l-.221.145c-.197.137-.426.316-.683.539l-.322.288c-.111.103-.226.213-.346.33-1.442 1.414-1.701 2.795-.85 4.338.223.404.031.901-.385 1.061l-.1.031c-.511.12-1.07.48-1.668 1.1-.273.283-.482.63-.62 1.007l-.103.45-.04.195c-.024.14-.038.28-.044.417v.028c.005.707.255 1.416.796 1.955.335.334.277.881-.096 1.144l-.091.055-.203.11-.204.122c-1.397.882-2.15 2.354-2.267 4.405l-.003.072h7.307l.001-9.046.007-.101c.05-.367.363-.649.743-.649.414 0 .75.336.75.75v9.046h7.31l-.005-.131c-.13-2.237-1.02-3.73-2.674-4.578-.453-.232-.548-.84-.187-1.199 1.138-1.135.985-3.019-.01-4.052-.539-.558-1.046-.905-1.514-1.057l-.155-.043c-.484-.113-.725-.657-.485-1.092.851-1.543.592-2.924-.85-4.338l-.176-.17-.334-.309-.308-.267c-.59-.493-1.014-.738-1.212-.754zM5.286 10.774l-.146.371c-1.295 3.378-1.64 6.289-1.06 8.739l.076.303.026.089h5.096l-2.103-4.305c-.181-.372-.027-.821.345-1.003.341-.167.747-.05.952.256l.051.089 2.424 4.964h1.603l-.002-.03c-.008-.165-.012-.33-.012-.497 0-1.458.326-2.84.91-4.077l.104-.214c-1.728-2.523-4.585-4.3-7.857-4.65l-.343-.03-.064-.005z" transform="translate(-913 -506) translate(136 320) translate(1 56) translate(0 114) translate(730) translate(46 16) translate(2.714 8.214) translate(.266) matrix(-1 0 0 1 45.071 .357)"/>
                                        </g>
                                    </g>
                                </g>
                            </g>
                        </g>
                    </g>
                </g>
            </g>
        </g>
    </g>
</svg>
