<?xml version="1.0" encoding="utf-8"?>
<!-- Generator: Adobe Illustrator 22.0.1, SVG Export Plug-In . SVG Version: 6.00 Build 0)  -->
<svg version="1.1" id="레이어_1" xmlns="http://www.w3.org/2000/svg" xmlns:xlink="http://www.w3.org/1999/xlink" x="0px"
	 y="0px" viewBox="0 0 80 80" style="enable-background:new 0 0 80 80;" xml:space="preserve">
<style type="text/css">
	.st0{fill:#FFFFFF;}
</style>
<g>
	<g>
		<path class="st0" d="M39.2,25.5c7.5,0,13.7,6.1,13.7,13.7c0,7.5-6.1,13.7-13.7,13.7c-7.5,0-13.7-6.1-13.7-13.7
			C25.5,31.6,31.6,25.5,39.2,25.5 M39.2,22.5c-9.2,0-16.7,7.5-16.7,16.7S30,55.8,39.2,55.8s16.7-7.5,16.7-16.7S48.3,22.5,39.2,22.5
			L39.2,22.5z"/>
	</g>
	<rect x="52.1" y="49.5" transform="matrix(0.7071 -0.7071 0.7071 0.7071 -22.1915 53.5751)" class="st0" width="3" height="8.1"/>
</g>
</svg>
