<svg width="24" height="24" viewBox="0 0 24 24" fill="none" xmlns="http://www.w3.org/2000/svg">
<path fill-rule="evenodd" clip-rule="evenodd" d="M12 2.75C10.0473 2.75 8.46428 4.33299 8.46428 6.28571C8.46428 8.23844 10.0473 9.82143 12 9.82143C13.9527 9.82143 15.5357 8.23844 15.5357 6.28571C15.5357 4.33299 13.9527 2.75 12 2.75ZM6.96428 6.28571C6.96428 3.50457 9.21885 1.25 12 1.25C14.7811 1.25 17.0357 3.50457 17.0357 6.28571C17.0357 9.06686 14.7811 11.3214 12 11.3214C9.21885 11.3214 6.96428 9.06686 6.96428 6.28571Z" fill="white"/>
<path fill-rule="evenodd" clip-rule="evenodd" d="M4.30999 16.1661C5.86723 14.5023 8.39985 13.25 12.2861 13.25C16.1724 13.25 18.705 14.5023 20.2623 16.1661C21.7999 17.8088 22.3218 19.7847 22.3218 21.1429C22.3218 21.5571 21.9861 21.8929 21.5718 21.8929H3.00041C2.5862 21.8929 2.25041 21.5571 2.25041 21.1429C2.25041 19.7847 2.77237 17.8088 4.30999 16.1661ZM3.81419 20.3929H20.7581C20.602 19.4301 20.1404 18.2309 19.1671 17.1911C17.9387 15.8786 15.8284 14.75 12.2861 14.75C8.74383 14.75 6.63359 15.8786 5.40512 17.1911C4.43184 18.2309 3.97027 19.4301 3.81419 20.3929Z" fill="white"/>
</svg>
